<svg version="1.1" id="Layer_1" xmlns="http://www.w3.org/2000/svg" xmlns:xlink="http://www.w3.org/1999/xlink" x="0px" y="0px"
	 width="100%" viewBox="0 0 1500 1500" enable-background="new 0 0 1500 1500" xml:space="preserve">
<path fill="none" opacity="0" stroke="none"
	d="
M988.000000,1501.000000
	C658.666748,1501.000000 329.833466,1501.000000 1.000132,1501.000000
	C1.000088,1001.000122 1.000088,501.000305 1.000044,1.000334
	C500.999756,1.000222 1000.999512,1.000222 1500.999512,1.000111
	C1500.999634,500.999664 1500.999634,1000.999329 1500.999756,1500.999512
	C1330.166626,1501.000000 1159.333374,1501.000000 988.000000,1501.000000
M984.466736,356.084167 
	C984.288696,356.383087 984.110718,356.681976 983.993835,356.999664 
	C983.993835,356.999664 983.987488,356.936035 983.421204,357.109161 
	C983.147217,357.393738 982.873230,357.678314 982.284729,358.066467 
	C982.086975,358.196259 981.972168,358.378357 981.284363,358.895782 
	C974.551147,364.713135 967.866211,370.587433 961.075195,376.336456 
	C945.057373,389.896545 927.470093,401.126556 908.977661,410.954987 
	C901.718201,414.813293 894.258362,418.294525 886.152832,422.021881 
	C879.422241,424.645233 872.691711,427.268585 865.179016,429.962463 
	C853.779236,433.025177 842.379517,436.087891 830.175110,439.116669 
	C824.105957,440.136414 818.036865,441.156189 811.134216,442.084290 
	C803.283875,442.720062 795.433655,443.358429 787.582947,443.989685 
	C785.779907,444.134644 783.898132,443.971649 782.183594,444.435059 
	C773.581177,446.759705 770.820679,453.431427 773.153748,464.053192 
	C772.051514,464.364624 770.959473,464.901550 769.845459,464.951843 
	C760.955994,465.353210 752.063660,465.876923 743.169617,465.929749 
	C736.434204,465.969788 729.694885,465.373047 722.378784,464.733856 
	C713.268311,456.477814 704.157898,448.221802 694.660156,439.425537 
	C688.351990,433.698761 682.073364,427.938904 675.713013,422.270691 
	C674.292358,421.004639 672.584900,420.060455 670.719360,418.371613 
	C659.150574,407.902679 647.581726,397.433777 635.713806,386.373932 
	C630.153870,381.233826 624.593872,376.093750 618.644348,370.418182 
	C612.439331,364.928833 606.234314,359.439453 599.715698,353.355713 
	C592.151062,346.409760 584.603638,339.444733 576.996460,332.545654 
	C576.186523,331.811127 575.026367,331.462860 573.722473,330.348633 
	C563.826965,321.208160 553.931458,312.067657 543.650757,302.388062 
	C542.376038,301.370026 541.045898,300.413483 539.835388,299.324097 
	C531.554565,291.871887 523.298767,284.391846 514.723816,276.328491 
	C506.570099,268.821503 498.490997,261.231171 490.234467,253.839035 
	C485.346985,249.463257 480.147064,245.519104 472.355896,249.304871 
	C470.919647,250.691513 469.355652,251.969269 468.066711,253.481430 
	C453.173584,270.953735 438.381073,288.512054 423.443024,305.945709 
	C408.494873,323.391144 393.546356,340.839905 378.328369,358.048767 
	C371.426178,365.853912 371.120239,371.711243 378.509857,378.972961 
	C380.862885,381.285309 383.600708,383.205170 385.964050,385.508209 
	C402.237061,401.366150 418.023438,417.669800 431.523682,436.029816 
	C441.517212,449.620758 451.238831,463.439514 457.515015,479.198334 
	C462.738556,492.313995 467.149994,505.753082 471.971527,519.879333 
	C473.272522,527.959229 474.892670,536.004272 475.780090,544.129333 
	C476.583557,551.485840 477.235352,558.967957 476.799805,566.326416 
	C476.054413,578.918457 474.407623,591.457214 472.975220,604.802429 
	C472.682312,605.575439 472.252686,606.325134 472.116180,607.124817 
	C466.428406,640.448425 454.524170,671.713379 440.346710,702.177429 
	C425.100128,734.938599 406.950348,766.104492 387.702698,796.653870 
	C382.735474,804.537720 384.096069,809.536682 391.500336,816.059998 
	C407.524902,830.177734 423.400238,844.466187 439.246521,858.784485 
	C448.350525,867.010620 457.221436,875.494629 466.325470,883.720703 
	C468.604279,885.779785 471.377655,887.291565 474.446564,889.653259 
	C479.264679,890.895264 483.359528,889.348755 486.555756,885.869324 
	C496.137451,875.438782 505.554535,864.856995 515.503418,853.990601 
	C515.692871,853.664612 515.882263,853.338562 516.003906,853.013184 
	C516.003906,853.013184 516.042969,853.068604 516.611206,852.882996 
	C517.095093,852.269714 517.579041,851.656372 517.996704,851.009521 
	C517.996704,851.009521 518.045959,851.065369 518.674072,850.822693 
	C526.406311,844.113403 533.997375,837.232483 541.901306,830.731934 
	C556.677063,818.579712 572.396606,807.764343 589.399780,798.943115 
	C599.487427,793.709656 609.774048,788.859741 620.718811,783.928833 
	C627.489075,781.314331 634.259338,778.699829 641.836792,776.032104 
	C643.896118,775.517273 645.946045,774.960449 648.016418,774.494507 
	C659.346985,771.944824 670.682495,769.417358 682.831970,766.905212 
	C684.421021,766.606201 686.001892,766.250122 687.600708,766.018738 
	C692.738586,765.275208 697.883057,764.577698 703.950256,763.957886 
	C707.592712,763.973816 711.239319,764.109314 714.876831,763.982666 
	C724.867310,763.634644 731.581665,756.083313 730.003113,748.008179 
	C736.246765,747.708435 742.513611,746.917480 748.729126,747.211426 
	C761.528931,747.816711 774.301208,749.001648 787.651001,750.277649 
	C798.763672,760.199463 809.876343,770.121277 821.279480,780.640747 
	C833.804565,792.185242 846.276794,803.787964 858.881470,815.244934 
	C863.760132,819.679382 868.938782,823.783875 874.285950,828.625427 
	C880.011658,834.064392 885.633057,839.619202 891.499451,844.901917 
	C895.478455,848.485168 899.801208,851.686523 904.279602,855.644043 
	C914.170776,864.784180 924.062012,873.924316 934.277222,883.653137 
	C935.915039,884.997620 937.604492,886.284302 939.181946,887.696167 
	C947.110535,894.792664 955.009949,901.921875 963.243530,909.630737 
	C974.816223,920.114136 986.388916,930.597595 998.280090,941.671387 
	C1004.051392,946.808777 1009.848450,951.917664 1015.584412,957.094177 
	C1019.115051,960.280457 1025.990601,961.683960 1029.224609,958.699524 
	C1033.611084,954.651672 1037.139038,949.673584 1041.627319,944.771851 
	C1043.163452,943.250610 1044.820923,941.832642 1046.216797,940.191895 
	C1059.049316,925.106689 1071.767822,909.924133 1084.656128,894.886902 
	C1097.662109,879.712219 1111.005615,864.823242 1123.831177,849.499512 
	C1129.389771,842.858337 1132.419678,836.411682 1123.110352,828.566711 
	C1119.570557,825.583618 1116.056641,822.536987 1112.814575,819.240356 
	C1105.953247,812.263489 1098.946899,805.386169 1092.604248,797.952332 
	C1082.763306,786.418579 1072.695679,774.960571 1064.086914,762.526794 
	C1055.852295,750.633301 1049.356689,737.535706 1041.978882,724.224792 
	C1041.281494,722.372681 1040.620483,720.505920 1039.881348,718.670593 
	C1031.555786,697.995789 1026.351807,676.644409 1026.016968,654.257751 
	C1025.909058,647.036682 1025.475586,639.765686 1026.116821,632.600403 
	C1027.216309,620.317017 1028.416870,607.978271 1030.740845,595.886780 
	C1033.127808,583.467407 1036.910645,571.316345 1040.645752,558.588745 
	C1045.333984,546.243713 1049.843628,533.827271 1054.746948,521.568176 
	C1065.528564,494.611969 1079.595337,469.307343 1094.216797,444.306976 
	C1101.136475,432.475494 1108.520874,420.914734 1115.382690,409.050812 
	C1118.707520,403.302277 1117.935059,399.207642 1113.177490,394.742981 
	C1107.266479,389.195892 1101.035889,383.991058 1095.053955,378.517548 
	C1082.213989,366.768951 1069.495239,354.887421 1056.622681,343.174927 
	C1051.245850,338.282593 1045.603394,333.682068 1039.771240,328.356079 
	C1037.788574,326.345612 1035.911499,324.216217 1033.803833,322.346680 
	C1027.116089,316.414825 1020.739075,316.391205 1015.073547,322.481506 
	C1007.570312,330.547333 1000.264526,338.796814 992.469238,347.140289 
	C992.213928,347.312714 992.045471,347.547485 991.517029,348.096527 
	C991.365417,348.389587 991.213806,348.682617 990.781006,349.561188 
	C989.176575,351.252380 987.572205,352.943542 985.503845,354.996429 
	C985.313721,355.327606 985.123596,355.658783 984.999084,355.993164 
	C984.999084,355.993164 984.982361,355.929565 984.466736,356.084167 
M267.120087,1182.243896 
	C266.076050,1179.980225 264.854004,1177.780273 264.016022,1175.442749 
	C256.956757,1155.751587 249.960999,1136.037598 242.959930,1116.325562 
	C237.626968,1101.310181 229.754379,1088.331055 212.915848,1084.694702 
	C205.080200,1083.002686 196.646652,1082.372925 188.702637,1083.247192 
	C172.574677,1085.022095 161.725235,1092.670532 161.284225,1108.849976 
	C160.362854,1142.652710 161.027512,1176.498047 160.959503,1210.325684 
	C160.953751,1213.188965 162.027435,1214.103271 164.783859,1214.040771 
	C170.779770,1213.904541 176.794785,1213.751099 182.775223,1214.084595 
	C186.965576,1214.318359 188.111694,1212.908936 188.088501,1208.762939 
	C187.922668,1179.102173 187.959839,1149.439697 188.051926,1119.778198 
	C188.063171,1116.160767 188.465607,1112.474731 189.247559,1108.944702 
	C190.600113,1102.838745 197.941284,1100.739014 202.569870,1105.279419 
	C204.861374,1107.527100 206.792160,1110.514648 207.907730,1113.529419 
	C215.685059,1134.546997 223.883881,1155.446167 230.605637,1176.805542 
	C236.533737,1195.642944 248.350281,1207.862671 267.321960,1211.263306 
	C281.243774,1213.758789 295.715088,1213.181030 309.940063,1213.998535 
	C312.903564,1214.168823 313.014282,1212.290649 313.013184,1210.102295 
	C312.993164,1169.775635 312.964294,1129.448730 313.061127,1089.122314 
	C313.069305,1085.724976 311.813873,1084.843140 308.663635,1084.946167 
	C302.837494,1085.136475 296.985046,1085.260986 291.173462,1084.913330 
	C286.907410,1084.658203 285.895111,1086.215454 285.915283,1090.288574 
	C286.069733,1121.449341 286.000000,1152.611328 286.000000,1183.772827 
	C286.000000,1185.701538 286.000000,1187.630127 286.000000,1189.822510 
	C278.205170,1190.240112 272.105408,1188.540161 267.120087,1182.243896 
M1235.159912,1084.000000 
	C1224.266846,1084.000000 1213.373657,1084.000000 1201.044556,1084.000000 
	C1219.647461,1105.578247 1237.214844,1125.955200 1254.806641,1146.360718 
	C1235.552002,1168.643921 1216.595581,1190.582031 1196.691528,1213.616821 
	C1199.958130,1213.811035 1201.547729,1213.981689 1203.137695,1213.987183 
	C1211.136597,1214.015137 1219.199829,1213.375000 1227.115112,1214.188477 
	C1234.024902,1214.898682 1237.750244,1211.296875 1241.564087,1206.797974 
	C1252.253784,1194.188354 1263.019409,1181.643188 1274.053223,1168.723389 
	C1277.222534,1172.316772 1280.074219,1175.480347 1282.849487,1178.709473 
	C1292.137695,1189.516479 1301.302246,1200.432739 1310.773315,1211.076660 
	C1312.200317,1212.680420 1314.985474,1213.806763 1317.180054,1213.871216 
	C1327.170044,1214.164673 1337.173828,1214.017822 1347.172241,1213.975464 
	C1348.344604,1213.970337 1349.515503,1213.633057 1351.305542,1213.353027 
	C1332.483887,1191.550415 1314.217529,1170.391357 1295.657837,1148.892212 
	C1314.202393,1127.393188 1332.500732,1106.179443 1351.632202,1084.000000 
	C1339.594849,1084.000000 1329.119507,1084.252808 1318.666382,1083.880615 
	C1314.243042,1083.723022 1311.481689,1085.573730 1308.905762,1088.622681 
	C1301.420776,1097.482056 1293.914673,1106.324341 1286.350342,1115.116211 
	C1283.148926,1118.837402 1279.781738,1122.415894 1276.298828,1126.270874 
	C1272.237671,1121.679443 1268.588013,1117.638550 1265.032959,1113.516113 
	C1257.566895,1104.858032 1250.264404,1096.054565 1242.619629,1087.558350 
	C1241.051758,1085.815918 1238.278564,1085.157959 1235.159912,1084.000000 
M509.994385,1173.537109 
	C498.884033,1186.602173 487.773712,1199.667236 476.663391,1212.732300 
	C476.974426,1213.150391 477.285492,1213.568604 477.596527,1213.986816 
	C489.224640,1213.986816 500.853119,1214.024536 512.480225,1213.916504 
	C513.432556,1213.907715 514.608826,1213.109009 515.286438,1212.332764 
	C521.387268,1205.344116 527.352661,1198.237183 533.451355,1191.246704 
	C539.943115,1183.805542 546.536621,1176.453491 553.248169,1168.879150 
	C556.305664,1172.351685 559.067627,1175.419312 561.753845,1178.551758 
	C571.025574,1189.364014 580.161133,1200.296875 589.638000,1210.925659 
	C591.155640,1212.627808 594.129639,1213.787476 596.474121,1213.864380 
	C606.291382,1214.186157 616.125305,1214.016602 625.953003,1213.978760 
	C627.176270,1213.973999 628.398499,1213.681030 630.353394,1213.426025 
	C611.500183,1191.575317 593.169189,1170.329712 574.664124,1148.882446 
	C593.281860,1127.293579 611.539734,1106.121948 630.617126,1084.000000 
	C618.606262,1084.000000 608.273743,1084.322876 597.976562,1083.858887 
	C593.083679,1083.638428 590.259155,1085.859131 587.467834,1089.149658 
	C577.932007,1100.390137 568.333252,1111.577515 558.713501,1122.746338 
	C557.678894,1123.947510 556.349121,1124.894409 554.928955,1126.162231 
	C543.416626,1112.718872 532.291138,1099.579712 520.923706,1086.653320 
	C519.612549,1085.162354 516.972412,1084.169434 514.918274,1084.116577 
	C504.930542,1083.858887 494.932495,1083.982666 484.938293,1084.022827 
	C483.729401,1084.027588 482.521759,1084.341187 480.566010,1084.617188 
	C498.698975,1105.645386 516.272644,1126.025024 533.889404,1146.454712 
	C525.815674,1155.619263 518.150085,1164.320679 509.994385,1173.537109 
M793.717651,1159.001221 
	C787.138489,1159.665405 780.558228,1160.318237 773.980408,1160.995605 
	C752.941589,1163.162231 734.654541,1170.812012 722.115723,1188.610962 
	C716.956299,1195.934692 713.068115,1204.153931 708.010559,1213.000000 
	C716.898926,1213.000000 724.115112,1212.361084 731.168152,1213.161133 
	C740.056580,1214.169312 744.899658,1211.169922 748.418091,1202.697266 
	C753.573364,1190.282837 763.418579,1182.403076 777.190674,1181.051392 
	C788.721802,1179.919678 800.345337,1179.759766 811.912048,1178.944458 
	C816.328430,1178.633057 819.434082,1179.378296 821.206055,1184.116943 
	C822.762634,1188.279541 825.387085,1192.038696 827.492371,1196.001343 
	C830.375732,1201.428589 831.925415,1209.002197 836.426941,1211.735718 
	C841.117737,1214.583984 848.635925,1212.840088 854.920654,1212.978516 
	C859.795288,1213.085815 864.674194,1213.000000 870.193970,1213.000000 
	C869.227112,1210.791260 868.760254,1209.570923 868.175049,1208.410278 
	C850.258240,1172.875977 832.328064,1137.348389 814.405701,1101.816772 
	C812.080383,1097.206787 809.975952,1092.469604 807.366882,1088.027588 
	C806.541992,1086.623291 804.431641,1085.184204 802.866699,1085.135132 
	C794.042358,1084.859253 785.200928,1084.866089 776.375549,1085.125122 
	C774.771851,1085.172241 772.455383,1086.440674 771.750427,1087.807007 
	C759.995361,1110.590942 748.407227,1133.461670 736.925232,1156.384888 
	C736.075989,1158.080322 736.318665,1160.322754 736.053711,1162.310913 
	C738.117493,1162.229126 740.278442,1162.515991 742.228455,1162.002441 
	C751.020630,1159.686279 759.718384,1157.007812 768.525024,1154.752075 
	C771.817627,1153.908691 773.950928,1152.518311 775.465820,1149.277466 
	C779.825928,1139.949585 784.606079,1130.818115 789.513367,1121.026611 
	C795.864502,1133.748169 801.923645,1145.884766 808.471313,1159.000000 
	C803.180786,1159.000000 798.925476,1159.000000 793.717651,1159.001221 
M1003.888794,1128.014404 
	C1001.071594,1130.941162 998.751282,1135.325195 995.333435,1136.490601 
	C988.264465,1138.901123 980.656494,1140.393921 973.187988,1140.818115 
	C961.234375,1141.497192 949.213745,1141.050537 937.221863,1140.986572 
	C923.812866,1140.914917 911.159607,1143.986084 899.651001,1150.791748 
	C890.002808,1156.497314 883.828552,1165.141846 883.142395,1176.488647 
	C882.490051,1187.275513 883.121033,1198.134644 882.932495,1208.957642 
	C882.871460,1212.461792 884.363953,1213.111206 887.412903,1213.050293 
	C895.071472,1212.897095 902.742737,1212.797607 910.393677,1213.084106 
	C914.307922,1213.230591 915.158447,1211.730103 915.071838,1208.149170 
	C914.854370,1199.160278 914.561157,1190.130981 915.206360,1181.183350 
	C915.481934,1177.361938 917.309143,1173.157715 919.673645,1170.082764 
	C924.897888,1163.289185 932.771423,1161.369263 940.933350,1161.038452 
	C960.327698,1160.252319 979.783691,1160.325806 999.109741,1158.757324 
	C1011.131287,1157.781494 1022.678772,1153.113037 1031.074585,1144.083984 
	C1043.845947,1130.349121 1042.451172,1107.648193 1024.906738,1095.951538 
	C1013.942749,1088.641846 1001.549377,1085.347412 988.693604,1085.150269 
	C958.220703,1084.682861 927.735718,1084.966797 897.255737,1085.035767 
	C892.668945,1085.046143 886.616394,1083.897705 883.942078,1086.296143 
	C881.632690,1088.367310 883.430054,1094.752686 882.930298,1099.176270 
	C882.359802,1104.225586 884.520935,1105.132324 889.135498,1105.102783 
	C919.947449,1104.905029 950.763000,1104.836304 981.572693,1105.166260 
	C986.523254,1105.219238 991.755554,1106.801514 996.318359,1108.867676 
	C1003.627136,1112.177246 1006.332642,1119.588989 1003.888794,1128.014404 
M1175.473633,1151.000000 
	C1177.306641,1151.000000 1179.161499,1150.819336 1180.968262,1151.037109 
	C1184.847168,1151.504761 1186.492188,1150.132324 1186.061401,1146.064331 
	C1185.747314,1143.098022 1185.718872,1140.039062 1186.064331,1137.079834 
	C1186.615234,1132.360474 1185.052612,1130.818726 1180.114746,1130.883789 
	C1159.288940,1131.158569 1138.454834,1130.809326 1117.628784,1131.073486 
	C1105.682617,1131.224976 1093.895142,1132.765381 1082.523804,1136.940308 
	C1067.961182,1142.286987 1056.168945,1156.606445 1056.029175,1170.002441 
	C1055.895264,1182.832031 1056.102051,1195.665527 1055.932861,1208.494263 
	C1055.887329,1211.952881 1056.924805,1213.075684 1060.451904,1213.066895 
	C1102.110718,1212.962402 1143.770020,1212.968628 1185.428833,1213.058838 
	C1188.790894,1213.066162 1190.362427,1212.247681 1190.054688,1208.609863 
	C1189.788818,1205.466187 1189.644165,1202.232544 1190.079102,1199.127319 
	C1190.827393,1193.786011 1188.516846,1192.858032 1183.659424,1192.892456 
	C1153.499756,1193.105957 1123.337402,1192.919189 1093.177246,1193.092407 
	C1088.946289,1193.116699 1087.610107,1191.822144 1087.929199,1187.714844 
	C1088.250854,1183.573975 1088.226562,1179.373779 1087.957153,1175.225464 
	C1087.157227,1162.908691 1094.307495,1155.647217 1105.304688,1153.254639 
	C1112.362061,1151.719238 1119.740234,1151.235840 1126.990356,1151.095093 
	C1142.814819,1150.787598 1158.649414,1151.000000 1175.473633,1151.000000 
M335.956573,1212.668945 
	C336.610535,1212.775513 337.264465,1212.975098 337.918457,1212.975342 
	C380.249878,1212.993530 422.581421,1212.961670 464.912598,1213.062256 
	C468.354889,1213.070435 469.237366,1211.738281 469.042847,1208.626831 
	C468.845642,1205.472656 468.647339,1202.247559 469.078522,1199.140869 
	C469.816193,1193.825806 467.555664,1192.855103 462.671661,1192.890381 
	C432.507935,1193.108398 402.341339,1192.919067 372.177002,1193.092529 
	C367.944031,1193.116821 366.672699,1191.819092 366.921570,1187.713989 
	C367.243652,1182.400391 366.828522,1177.045532 367.046570,1171.721313 
	C367.290192,1165.773315 369.863861,1161.067383 374.816437,1157.452271 
	C383.038757,1151.450562 392.710266,1151.439819 402.004395,1151.170898 
	C421.487244,1150.607300 440.998199,1150.928711 460.496399,1151.066162 
	C463.955719,1151.090454 465.327423,1150.083496 465.054199,1146.541260 
	C464.798615,1143.227783 464.730713,1139.851807 465.066620,1136.552734 
	C465.507660,1132.220825 464.117371,1130.838257 459.587097,1130.890503 
	C438.257507,1131.136230 416.920013,1130.766724 395.592590,1131.092163 
	C383.821655,1131.271606 372.078918,1132.639404 361.028625,1137.148315 
	C347.781128,1142.553711 337.384094,1151.623047 335.817230,1166.149780 
	C334.185333,1181.279785 335.364746,1196.713135 335.956573,1212.668945 
M1181.445801,1105.000000 
	C1182.278320,1105.000000 1183.128662,1104.888062 1183.940308,1105.018433 
	C1188.646729,1105.774658 1190.684204,1104.040283 1190.063232,1099.102295 
	C1189.712769,1096.316040 1189.701782,1093.410522 1190.066162,1090.627930 
	C1190.697266,1085.807129 1188.576294,1084.892578 1184.171875,1084.910645 
	C1146.212524,1085.066162 1108.252319,1084.973999 1070.292358,1085.034058 
	C1065.703613,1085.041260 1059.333374,1083.814331 1057.020142,1086.240234 
	C1054.628052,1088.748901 1056.427490,1095.041626 1055.929565,1099.628540 
	C1055.428223,1104.244629 1057.350220,1105.105469 1061.584106,1105.089355 
	C1101.208374,1104.938721 1140.833374,1105.000000 1181.445801,1105.000000 
M432.500000,1105.000000 
	C443.321503,1104.999634 454.143890,1104.922607 464.963928,1105.048950 
	C467.931183,1105.083496 469.266144,1104.210449 469.041260,1101.082031 
	C468.838837,1098.266357 469.021118,1095.424438 468.995911,1092.594482 
	C468.920471,1084.119141 469.939545,1085.015625 461.651733,1085.010376 
	C424.359253,1084.986572 387.066742,1084.972168 349.774384,1085.034546 
	C345.020844,1085.042480 338.750916,1083.821533 335.975922,1086.298462 
	C333.583496,1088.433838 335.427155,1095.056763 334.928589,1099.644653 
	C334.424469,1104.284180 336.390656,1105.111816 340.600098,1105.088745 
	C370.899323,1104.922729 401.199860,1105.000000 432.500000,1105.000000 
z"/>
<path fill="#BEB6BF" opacity="1.000000" stroke="none" 
	d="
M472.989685,249.132812 
	C480.147064,245.519104 485.346985,249.463257 490.234467,253.839035 
	C498.490997,261.231171 506.570099,268.821503 514.858337,277.055115 
	C514.661865,280.401520 514.041870,283.021240 514.041260,285.641083 
	C513.995911,471.241943 513.991028,656.842773 514.083313,842.443604 
	C514.084717,845.301758 515.336548,848.159180 516.001343,851.358643 
	C516.012817,852.156433 516.027893,852.612488 516.042969,853.068604 
	C516.042969,853.068604 516.003906,853.013184 515.766846,853.139038 
	C515.365173,853.621338 515.200500,853.977783 515.035828,854.334167 
	C505.554535,864.856995 496.137451,875.438782 486.555756,885.869324 
	C483.359528,889.348755 479.264679,890.895264 474.495239,889.062012 
	C474.695953,886.500671 474.979736,884.530640 474.980743,882.560547 
	C475.005463,834.635803 475.000000,786.710999 475.000000,738.786255 
	C475.000000,695.687256 475.022736,652.588135 474.921234,609.489380 
	C474.916962,607.664307 473.759583,605.841919 473.139404,604.018311 
	C474.407623,591.457214 476.054413,578.918457 476.799805,566.326416 
	C477.235352,558.967957 476.583557,551.485840 475.780090,544.129333 
	C474.892670,536.004272 473.272522,527.959229 472.257751,519.173767 
	C472.695984,516.828979 472.980652,515.189697 472.980988,513.550476 
	C472.999054,425.411255 472.993134,337.272034 472.989685,249.132812 
z"/>
<path fill="#BDB4BE" opacity="1.000000" stroke="none" 
	d="
M1040.082520,559.047852 
	C1036.910645,571.316345 1033.127808,583.467407 1030.740845,595.886780 
	C1028.416870,607.978271 1027.216309,620.317017 1026.116821,632.600403 
	C1025.475586,639.765686 1025.909058,647.036682 1026.016968,654.257751 
	C1026.351807,676.644409 1031.555786,697.995789 1039.881348,718.670593 
	C1040.620483,720.505920 1041.281494,722.372681 1041.631714,724.688232 
	C1040.856445,727.133728 1040.055786,729.115540 1040.053955,731.098083 
	C1039.989258,799.650818 1039.987915,868.203613 1040.043823,936.756348 
	C1040.046143,939.536011 1040.690186,942.315186 1041.035278,945.094543 
	C1037.139038,949.673584 1033.611084,954.651672 1029.224609,958.699524 
	C1025.990601,961.683960 1019.115051,960.280457 1015.584412,957.094177 
	C1009.848450,951.917664 1004.051392,946.808777 998.182800,940.953613 
	C998.390320,937.949402 998.955200,935.663513 998.960388,933.376343 
	C999.021912,906.212952 999.000000,879.049438 999.000000,851.885925 
	C999.000000,686.071960 999.003967,520.257996 998.966003,354.444061 
	C998.965393,351.757690 998.453979,349.071442 998.178772,346.363464 
	C995.807678,346.633362 994.340759,346.800354 992.873840,346.967346 
	C1000.264526,338.796814 1007.570312,330.547333 1015.073547,322.481506 
	C1020.739075,316.391205 1027.116089,316.414825 1033.803833,322.346680 
	C1035.911499,324.216217 1037.788574,326.345612 1039.614502,328.942719 
	C1039.305176,330.835327 1039.019409,332.141296 1039.019043,333.447296 
	C1038.997559,407.099091 1038.993530,480.750916 1039.045288,554.402649 
	C1039.046387,555.951355 1039.721680,557.499451 1040.082520,559.047852 
z"/>
<path fill="#C1BAC2" opacity="1.000000" stroke="none" 
	d="
M992.671509,347.053833 
	C994.340759,346.800354 995.807678,346.633362 998.178772,346.363464 
	C998.453979,349.071442 998.965393,351.757690 998.966003,354.444061 
	C999.003967,520.257996 999.000000,686.071960 999.000000,851.885925 
	C999.000000,879.049438 999.021912,906.212952 998.960388,933.376343 
	C998.955200,935.663513 998.390320,937.949402 998.023560,940.658447 
	C986.388916,930.597595 974.816223,920.114136 963.394409,909.046753 
	C963.696777,906.989807 963.980957,905.516907 963.981140,904.043945 
	C964.001099,732.401733 964.003174,560.759521 963.955811,389.117310 
	C963.955322,387.399872 963.287231,385.682648 962.988403,383.625671 
	C965.963501,379.761261 969.000183,376.327148 971.768799,372.689026 
	C975.273376,368.083710 978.559814,363.312439 981.940308,358.612793 
	C981.972168,358.378357 982.086975,358.196259 982.750610,357.958496 
	C983.473450,357.545715 983.730469,357.240875 983.987488,356.936035 
	C983.987488,356.936035 983.993835,356.999664 984.216736,356.907562 
	C984.620544,356.520172 984.801453,356.224884 984.982361,355.929565 
	C984.982361,355.929565 984.999084,355.993164 985.242920,355.864319 
	C985.647156,355.368561 985.807434,355.001648 985.967773,354.634735 
	C987.572205,352.943542 989.176575,351.252380 991.141052,349.144226 
	C991.655334,348.433044 991.809631,348.138824 991.963867,347.844604 
	C992.045471,347.547485 992.213928,347.312714 992.671509,347.053833 
z"/>
<path fill="#C2BCC3" opacity="1.000000" stroke="none" 
	d="
M516.004883,851.016968 
	C515.336548,848.159180 514.084717,845.301758 514.083313,842.443604 
	C513.991028,656.842773 513.995911,471.241943 514.041260,285.641083 
	C514.041870,283.021240 514.661865,280.401520 515.013916,277.351257 
	C523.298767,284.391846 531.554565,291.871887 539.835388,299.324097 
	C541.045898,300.413483 542.376038,301.370026 543.781738,303.079590 
	C543.608459,305.724365 543.038391,307.677551 543.037903,309.630829 
	C542.996948,476.272003 542.991150,642.913208 543.085022,809.554321 
	C543.086426,812.043640 544.363220,814.532227 544.903442,817.328979 
	C538.738525,824.704895 532.599487,831.678894 526.738037,838.878784 
	C523.594238,842.740356 520.927795,846.990540 518.045959,851.065369 
	C518.045959,851.065369 517.996704,851.009521 517.687256,850.992920 
	C516.920166,850.989807 516.462524,851.003357 516.004883,851.016968 
z"/>
<path fill="#DCDFD8" opacity="1.000000" stroke="none" 
	d="
M873.980713,828.038757 
	C868.938782,823.783875 863.760132,819.679382 858.881470,815.244934 
	C846.276794,803.787964 833.804565,792.185242 821.137817,779.868713 
	C820.997498,711.449341 821.003784,643.802063 820.993713,576.154724 
	C820.992432,567.658875 820.904785,559.163025 820.918701,550.336182 
	C826.279419,543.319824 831.578613,536.634399 837.201416,529.831665 
	C847.672119,517.804626 857.819336,505.895020 868.229553,493.808655 
	C869.644775,492.413239 870.796936,491.194641 872.329407,490.046844 
	C873.473145,492.661133 874.901550,495.203918 874.904175,497.748199 
	C875.015686,605.227600 875.007141,712.707031 874.957275,820.186523 
	C874.956055,822.804077 874.320496,825.421326 873.980713,828.038757 
z"/>
<path fill="#C7C3C7" opacity="1.000000" stroke="none" 
	d="
M545.044800,817.021179 
	C544.363220,814.532227 543.086426,812.043640 543.085022,809.554321 
	C542.991150,642.913208 542.996948,476.272003 543.037903,309.630829 
	C543.038391,307.677551 543.608459,305.724365 543.974365,303.349152 
	C553.931458,312.067657 563.826965,321.208160 573.865295,331.117065 
	C574.005432,479.434296 574.002686,626.983093 574.001892,774.531921 
	C574.001892,775.697083 573.663086,777.057129 574.148926,777.972290 
	C574.629089,778.876831 575.955994,779.331909 576.803467,780.298462 
	C571.481689,786.851318 566.359863,793.169800 561.027710,799.305481 
	C555.811646,805.307678 550.381165,811.123535 545.044800,817.021179 
z"/>
<path fill="#C7C3C7" opacity="1.000000" stroke="none" 
	d="
M962.930847,383.965302 
	C963.287231,385.682648 963.955322,387.399872 963.955811,389.117310 
	C964.003174,560.759521 964.001099,732.401733 963.981140,904.043945 
	C963.980957,905.516907 963.696777,906.989807 963.232422,908.751160 
	C955.009949,901.921875 947.110535,894.792664 939.181946,887.696167 
	C937.604492,886.284302 935.915039,884.997620 934.290039,882.970459 
	C934.535156,880.163696 934.970642,878.039734 934.971069,875.915649 
	C935.002930,726.020630 935.005615,576.125549 934.956665,426.230499 
	C934.955750,423.448334 934.307434,420.666351 934.007812,417.551270 
	C937.818359,412.630554 941.469177,407.944000 945.372864,403.478424 
	C951.131104,396.891510 957.069275,390.461914 962.930847,383.965302 
z"/>
<path fill="#94FCFF" opacity="1.000000" stroke="none" 
	d="
M836.877869,529.949036 
	C831.578613,536.634399 826.279419,543.319824 820.593018,550.457642 
	C819.416199,551.496765 818.481506,551.959778 817.859436,552.689331 
	C811.543457,560.097595 805.238342,567.515869 799.014160,575.001160 
	C795.239624,579.540527 791.612427,584.202332 787.632568,588.992126 
	C781.567810,595.771423 775.723877,602.311768 770.032776,608.982483 
	C765.866028,613.866638 761.899963,618.922058 757.564087,624.073059 
	C744.054016,639.535278 730.698242,654.719238 717.657837,670.169312 
	C712.599243,676.162720 713.180725,682.093079 718.940674,687.315186 
	C731.831482,699.002319 744.898682,710.494873 758.057373,722.360291 
	C763.390015,727.468628 768.485718,732.365906 773.751892,737.072266 
	C778.006470,740.874634 782.466614,744.446899 786.880737,748.425598 
	C786.978821,749.135986 787.031799,749.541992 787.084839,749.948059 
	C774.301208,749.001648 761.528931,747.816711 748.729126,747.211426 
	C742.513611,746.917480 736.246765,747.708435 729.429565,747.710083 
	C727.404236,745.613525 726.148499,743.601807 724.465759,742.054688 
	C718.128662,736.227600 711.652466,730.551819 705.048828,724.536499 
	C697.848450,717.845703 690.827515,711.437927 683.712708,704.715210 
	C679.515015,700.566895 675.732788,696.291138 671.224304,693.014465 
	C665.834167,689.096985 664.189148,684.186951 665.037964,677.640991 
	C667.050537,674.859192 669.022644,672.419189 671.293152,669.829224 
	C679.692871,660.115601 687.794128,650.551880 696.091248,640.713501 
	C699.360168,636.950989 702.506287,633.524170 705.491882,629.962830 
	C712.413147,621.706726 719.256775,613.385620 726.418518,604.911987 
	C735.139771,594.829163 743.574524,584.925232 752.305298,574.860718 
	C756.252380,570.446899 759.898865,566.189636 763.555542,561.941223 
	C770.145508,554.284851 776.867249,546.737488 783.299255,538.950806 
	C789.598450,531.324829 789.312927,526.341980 782.031860,519.651794 
	C772.534485,510.925201 762.768616,502.490906 752.952148,493.638428 
	C743.525635,484.929474 734.265259,476.512970 724.740601,467.914795 
	C723.969971,466.842010 723.463623,465.950867 722.957336,465.059692 
	C729.694885,465.373047 736.434204,465.969788 743.169617,465.929749 
	C752.063660,465.876923 760.955994,465.353210 769.845459,464.951843 
	C770.959473,464.901550 772.051514,464.364624 773.910828,464.053802 
	C775.976990,465.024231 777.372925,465.897125 778.581604,466.979065 
	C789.030884,476.331909 799.446411,485.722412 810.034058,495.392731 
	C816.800781,501.781738 823.405334,507.879700 830.202148,514.250366 
	C836.348267,518.071045 837.942383,523.451355 836.877869,529.949036 
z"/>
<path fill="#CCCACC" opacity="1.000000" stroke="none" 
	d="
M933.961182,417.884247 
	C934.307434,420.666351 934.955750,423.448334 934.956665,426.230499 
	C935.005615,576.125549 935.002930,726.020630 934.971069,875.915649 
	C934.970642,878.039734 934.535156,880.163696 934.128052,882.676025 
	C924.062012,873.924316 914.170776,864.784180 904.135498,854.876770 
	C903.994202,722.805542 904.001953,591.501587 903.957642,460.197601 
	C903.956970,458.092133 903.320557,455.986847 903.112732,453.579651 
	C905.523193,450.461182 907.709595,447.563660 910.097290,444.842712 
	C918.012817,435.822266 926.000916,426.865448 933.961182,417.884247 
z"/>
<path fill="#BAB1BC" opacity="1.000000" stroke="none" 
	d="
M472.672791,249.218842 
	C472.993134,337.272034 472.999054,425.411255 472.980988,513.550476 
	C472.980652,515.189697 472.695984,516.828979 472.232544,518.758545 
	C467.149994,505.753082 462.738556,492.313995 457.515015,479.198334 
	C451.238831,463.439514 441.517212,449.620758 431.523682,436.029816 
	C418.023438,417.669800 402.237061,401.366150 385.964050,385.508209 
	C383.600708,383.205170 380.862885,381.285309 378.509857,378.972961 
	C371.120239,371.711243 371.426178,365.853912 378.328369,358.048767 
	C393.546356,340.839905 408.494873,323.391144 423.443024,305.945709 
	C438.381073,288.512054 453.173584,270.953735 468.066711,253.481430 
	C469.355652,251.969269 470.919647,250.691513 472.672791,249.218842 
z"/>
<path fill="#BAB1BC" opacity="1.000000" stroke="none" 
	d="
M473.057312,604.410400 
	C473.759583,605.841919 474.916962,607.664307 474.921234,609.489380 
	C475.022736,652.588135 475.000000,695.687256 475.000000,738.786255 
	C475.000000,786.710999 475.005463,834.635803 474.980743,882.560547 
	C474.979736,884.530640 474.695953,886.500671 474.233826,888.762817 
	C471.377655,887.291565 468.604279,885.779785 466.325470,883.720703 
	C457.221436,875.494629 448.350525,867.010620 439.246521,858.784485 
	C423.400238,844.466187 407.524902,830.177734 391.500336,816.059998 
	C384.096069,809.536682 382.735474,804.537720 387.702698,796.653870 
	C406.950348,766.104492 425.100128,734.938599 440.346710,702.177429 
	C454.524170,671.713379 466.428406,640.448425 472.116180,607.124817 
	C472.252686,606.325134 472.682312,605.575439 473.057312,604.410400 
z"/>
<path fill="#EDEDED" opacity="1.000000" stroke="none" 
	d="
M267.312073,1182.557007 
	C272.105408,1188.540161 278.205170,1190.240112 286.000000,1189.822510 
	C286.000000,1187.630127 286.000000,1185.701538 286.000000,1183.772827 
	C286.000000,1152.611328 286.069733,1121.449341 285.915283,1090.288574 
	C285.895111,1086.215454 286.907410,1084.658203 291.173462,1084.913330 
	C296.985046,1085.260986 302.837494,1085.136475 308.663635,1084.946167 
	C311.813873,1084.843140 313.069305,1085.724976 313.061127,1089.122314 
	C312.964294,1129.448730 312.993164,1169.775635 313.013184,1210.102295 
	C313.014282,1212.290649 312.903564,1214.168823 309.940063,1213.998535 
	C295.715088,1213.181030 281.243774,1213.758789 267.321960,1211.263306 
	C248.350281,1207.862671 236.533737,1195.642944 230.605637,1176.805542 
	C223.883881,1155.446167 215.685059,1134.546997 207.907730,1113.529419 
	C206.792160,1110.514648 204.861374,1107.527100 202.569870,1105.279419 
	C197.941284,1100.739014 190.600113,1102.838745 189.247559,1108.944702 
	C188.465607,1112.474731 188.063171,1116.160767 188.051926,1119.778198 
	C187.959839,1149.439697 187.922668,1179.102173 188.088501,1208.762939 
	C188.111694,1212.908936 186.965576,1214.318359 182.775223,1214.084595 
	C176.794785,1213.751099 170.779770,1213.904541 164.783859,1214.040771 
	C162.027435,1214.103271 160.953751,1213.188965 160.959503,1210.325684 
	C161.027512,1176.498047 160.362854,1142.652710 161.284225,1108.849976 
	C161.725235,1092.670532 172.574677,1085.022095 188.702637,1083.247192 
	C196.646652,1082.372925 205.080200,1083.002686 212.915848,1084.694702 
	C229.754379,1088.331055 237.626968,1101.310181 242.959930,1116.325562 
	C249.960999,1136.037598 256.956757,1155.751587 264.016022,1175.442749 
	C264.854004,1177.780273 266.076050,1179.980225 267.312073,1182.557007 
z"/>
<path fill="#D4D4D2" opacity="1.000000" stroke="none" 
	d="
M902.980835,453.881470 
	C903.320557,455.986847 903.956970,458.092133 903.957642,460.197601 
	C904.001953,591.501587 903.994202,722.805542 903.980774,854.584106 
	C899.801208,851.686523 895.478455,848.485168 891.499451,844.901917 
	C885.633057,839.619202 880.011658,834.064392 874.133301,828.332092 
	C874.320496,825.421326 874.956055,822.804077 874.957275,820.186523 
	C875.007141,712.707031 875.015686,605.227600 874.904175,497.748199 
	C874.901550,495.203918 873.473145,492.661133 872.373291,489.703186 
	C873.282715,487.776245 874.538391,486.271759 875.772705,484.749908 
	C880.224731,479.260925 884.669495,473.766113 889.393250,468.075134 
	C894.106628,463.211639 898.543762,458.546570 902.980835,453.881470 
z"/>
<path fill="#CCCACC" opacity="1.000000" stroke="none" 
	d="
M576.911377,779.984131 
	C575.955994,779.331909 574.629089,778.876831 574.148926,777.972290 
	C573.663086,777.057129 574.001892,775.697083 574.001892,774.531921 
	C574.002686,626.983093 574.005432,479.434296 574.018372,331.410431 
	C575.026367,331.462860 576.186523,331.811127 576.996460,332.545654 
	C584.603638,339.444733 592.151062,346.409760 599.811646,354.072937 
	C599.605042,357.242584 599.038635,359.694977 599.037781,362.147522 
	C598.994873,489.251801 598.992493,616.356079 599.046570,743.460327 
	C599.047791,746.406433 599.742859,749.352234 600.052612,752.618103 
	C592.297729,761.953369 584.604553,770.968750 576.911377,779.984131 
z"/>
<path fill="#DCDFD8" opacity="1.000000" stroke="none" 
	d="
M670.994751,669.979248 
	C669.022644,672.419189 667.050537,674.859192 664.737793,677.793335 
	C655.929382,688.190918 647.461609,698.094177 638.715393,708.121216 
	C637.655334,708.900513 636.873718,709.556213 636.064819,709.764771 
	C635.691833,706.531677 635.037476,703.744812 635.045044,700.959839 
	C635.329712,596.294800 635.675415,491.629822 636.012939,386.964874 
	C647.581726,397.433777 659.150574,407.902679 670.861450,419.141907 
	C671.000610,503.267914 670.997742,586.623596 670.994751,669.979248 
z"/>
<path fill="#BAB1BC" opacity="1.000000" stroke="none" 
	d="
M1041.331299,944.933228 
	C1040.690186,942.315186 1040.046143,939.536011 1040.043823,936.756348 
	C1039.987915,868.203613 1039.989258,799.650818 1040.053955,731.098083 
	C1040.055786,729.115540 1040.856445,727.133728 1041.690674,725.059448 
	C1049.356689,737.535706 1055.852295,750.633301 1064.086914,762.526794 
	C1072.695679,774.960571 1082.763306,786.418579 1092.604248,797.952332 
	C1098.946899,805.386169 1105.953247,812.263489 1112.814575,819.240356 
	C1116.056641,822.536987 1119.570557,825.583618 1123.110352,828.566711 
	C1132.419678,836.411682 1129.389771,842.858337 1123.831177,849.499512 
	C1111.005615,864.823242 1097.662109,879.712219 1084.656128,894.886902 
	C1071.767822,909.924133 1059.049316,925.106689 1046.216797,940.191895 
	C1044.820923,941.832642 1043.163452,943.250610 1041.331299,944.933228 
z"/>
<path fill="#EDEDED" opacity="1.000000" stroke="none" 
	d="
M1235.610474,1084.000000 
	C1238.278564,1085.157959 1241.051758,1085.815918 1242.619629,1087.558350 
	C1250.264404,1096.054565 1257.566895,1104.858032 1265.032959,1113.516113 
	C1268.588013,1117.638550 1272.237671,1121.679443 1276.298828,1126.270874 
	C1279.781738,1122.415894 1283.148926,1118.837402 1286.350342,1115.116211 
	C1293.914673,1106.324341 1301.420776,1097.482056 1308.905762,1088.622681 
	C1311.481689,1085.573730 1314.243042,1083.723022 1318.666382,1083.880615 
	C1329.119507,1084.252808 1339.594849,1084.000000 1351.632202,1084.000000 
	C1332.500732,1106.179443 1314.202393,1127.393188 1295.657837,1148.892212 
	C1314.217529,1170.391357 1332.483887,1191.550415 1351.305542,1213.353027 
	C1349.515503,1213.633057 1348.344604,1213.970337 1347.172241,1213.975464 
	C1337.173828,1214.017822 1327.170044,1214.164673 1317.180054,1213.871216 
	C1314.985474,1213.806763 1312.200317,1212.680420 1310.773315,1211.076660 
	C1301.302246,1200.432739 1292.137695,1189.516479 1282.849487,1178.709473 
	C1280.074219,1175.480347 1277.222534,1172.316772 1274.053223,1168.723389 
	C1263.019409,1181.643188 1252.253784,1194.188354 1241.564087,1206.797974 
	C1237.750244,1211.296875 1234.024902,1214.898682 1227.115112,1214.188477 
	C1219.199829,1213.375000 1211.136597,1214.015137 1203.137695,1213.987183 
	C1201.547729,1213.981689 1199.958130,1213.811035 1196.691528,1213.616821 
	C1216.595581,1190.582031 1235.552002,1168.643921 1254.806641,1146.360718 
	C1237.214844,1125.955200 1219.647461,1105.578247 1201.044556,1084.000000 
	C1213.373657,1084.000000 1224.266846,1084.000000 1235.610474,1084.000000 
z"/>
<path fill="#EDEDED" opacity="1.000000" stroke="none" 
	d="
M510.239410,1173.279541 
	C518.150085,1164.320679 525.815674,1155.619263 533.889404,1146.454712 
	C516.272644,1126.025024 498.698975,1105.645386 480.566010,1084.617188 
	C482.521759,1084.341187 483.729401,1084.027588 484.938293,1084.022827 
	C494.932495,1083.982666 504.930542,1083.858887 514.918274,1084.116577 
	C516.972412,1084.169434 519.612549,1085.162354 520.923706,1086.653320 
	C532.291138,1099.579712 543.416626,1112.718872 554.928955,1126.162231 
	C556.349121,1124.894409 557.678894,1123.947510 558.713501,1122.746338 
	C568.333252,1111.577515 577.932007,1100.390137 587.467834,1089.149658 
	C590.259155,1085.859131 593.083679,1083.638428 597.976562,1083.858887 
	C608.273743,1084.322876 618.606262,1084.000000 630.617126,1084.000000 
	C611.539734,1106.121948 593.281860,1127.293579 574.664124,1148.882446 
	C593.169189,1170.329712 611.500183,1191.575317 630.353394,1213.426025 
	C628.398499,1213.681030 627.176270,1213.973999 625.953003,1213.978760 
	C616.125305,1214.016602 606.291382,1214.186157 596.474121,1213.864380 
	C594.129639,1213.787476 591.155640,1212.627808 589.638000,1210.925659 
	C580.161133,1200.296875 571.025574,1189.364014 561.753845,1178.551758 
	C559.067627,1175.419312 556.305664,1172.351685 553.248169,1168.879150 
	C546.536621,1176.453491 539.943115,1183.805542 533.451355,1191.246704 
	C527.352661,1198.237183 521.387268,1205.344116 515.286438,1212.332764 
	C514.608826,1213.109009 513.432556,1213.907715 512.480225,1213.916504 
	C500.853119,1214.024536 489.224640,1213.986816 477.596527,1213.986816 
	C477.285492,1213.568604 476.974426,1213.150391 476.663391,1212.732300 
	C487.773712,1199.667236 498.884033,1186.602173 510.239410,1173.279541 
z"/>
<path fill="#EDEDED" opacity="1.000000" stroke="none" 
	d="
M794.193909,1159.000610 
	C798.925476,1159.000000 803.180786,1159.000000 808.471313,1159.000000 
	C801.923645,1145.884766 795.864502,1133.748169 789.513367,1121.026611 
	C784.606079,1130.818115 779.825928,1139.949585 775.465820,1149.277466 
	C773.950928,1152.518311 771.817627,1153.908691 768.525024,1154.752075 
	C759.718384,1157.007812 751.020630,1159.686279 742.228455,1162.002441 
	C740.278442,1162.515991 738.117493,1162.229126 736.053711,1162.310913 
	C736.318665,1160.322754 736.075989,1158.080322 736.925232,1156.384888 
	C748.407227,1133.461670 759.995361,1110.590942 771.750427,1087.807007 
	C772.455383,1086.440674 774.771851,1085.172241 776.375549,1085.125122 
	C785.200928,1084.866089 794.042358,1084.859253 802.866699,1085.135132 
	C804.431641,1085.184204 806.541992,1086.623291 807.366882,1088.027588 
	C809.975952,1092.469604 812.080383,1097.206787 814.405701,1101.816772 
	C832.328064,1137.348389 850.258240,1172.875977 868.175049,1208.410278 
	C868.760254,1209.570923 869.227112,1210.791260 870.193970,1213.000000 
	C864.674194,1213.000000 859.795288,1213.085815 854.920654,1212.978516 
	C848.635925,1212.840088 841.117737,1214.583984 836.426941,1211.735718 
	C831.925415,1209.002197 830.375732,1201.428589 827.492371,1196.001343 
	C825.387085,1192.038696 822.762634,1188.279541 821.206055,1184.116943 
	C819.434082,1179.378296 816.328430,1178.633057 811.912048,1178.944458 
	C800.345337,1179.759766 788.721802,1179.919678 777.190674,1181.051392 
	C763.418579,1182.403076 753.573364,1190.282837 748.418091,1202.697266 
	C744.899658,1211.169922 740.056580,1214.169312 731.168152,1213.161133 
	C724.115112,1212.361084 716.898926,1213.000000 708.010559,1213.000000 
	C713.068115,1204.153931 716.956299,1195.934692 722.115723,1188.610962 
	C734.654541,1170.812012 752.941589,1163.162231 773.980408,1160.995605 
	C780.558228,1160.318237 787.138489,1159.665405 794.193909,1159.000610 
z"/>
<path fill="#BAB1BC" opacity="1.000000" stroke="none" 
	d="
M1040.364136,558.818298 
	C1039.721680,557.499451 1039.046387,555.951355 1039.045288,554.402649 
	C1038.993530,480.750916 1038.997559,407.099091 1039.019043,333.447296 
	C1039.019409,332.141296 1039.305176,330.835327 1039.769775,329.239136 
	C1045.603394,333.682068 1051.245850,338.282593 1056.622681,343.174927 
	C1069.495239,354.887421 1082.213989,366.768951 1095.053955,378.517548 
	C1101.035889,383.991058 1107.266479,389.195892 1113.177490,394.742981 
	C1117.935059,399.207642 1118.707520,403.302277 1115.382690,409.050812 
	C1108.520874,420.914734 1101.136475,432.475494 1094.216797,444.306976 
	C1079.595337,469.307343 1065.528564,494.611969 1054.746948,521.568176 
	C1049.843628,533.827271 1045.333984,546.243713 1040.364136,558.818298 
z"/>
<path fill="#EDEDED" opacity="1.000000" stroke="none" 
	d="
M1003.976929,1127.629150 
	C1006.332642,1119.588989 1003.627136,1112.177246 996.318359,1108.867676 
	C991.755554,1106.801514 986.523254,1105.219238 981.572693,1105.166260 
	C950.763000,1104.836304 919.947449,1104.905029 889.135498,1105.102783 
	C884.520935,1105.132324 882.359802,1104.225586 882.930298,1099.176270 
	C883.430054,1094.752686 881.632690,1088.367310 883.942078,1086.296143 
	C886.616394,1083.897705 892.668945,1085.046143 897.255737,1085.035767 
	C927.735718,1084.966797 958.220703,1084.682861 988.693604,1085.150269 
	C1001.549377,1085.347412 1013.942749,1088.641846 1024.906738,1095.951538 
	C1042.451172,1107.648193 1043.845947,1130.349121 1031.074585,1144.083984 
	C1022.678772,1153.113037 1011.131287,1157.781494 999.109741,1158.757324 
	C979.783691,1160.325806 960.327698,1160.252319 940.933350,1161.038452 
	C932.771423,1161.369263 924.897888,1163.289185 919.673645,1170.082764 
	C917.309143,1173.157715 915.481934,1177.361938 915.206360,1181.183350 
	C914.561157,1190.130981 914.854370,1199.160278 915.071838,1208.149170 
	C915.158447,1211.730103 914.307922,1213.230591 910.393677,1213.084106 
	C902.742737,1212.797607 895.071472,1212.897095 887.412903,1213.050293 
	C884.363953,1213.111206 882.871460,1212.461792 882.932495,1208.957642 
	C883.121033,1198.134644 882.490051,1187.275513 883.142395,1176.488647 
	C883.828552,1165.141846 890.002808,1156.497314 899.651001,1150.791748 
	C911.159607,1143.986084 923.812866,1140.914917 937.221863,1140.986572 
	C949.213745,1141.050537 961.234375,1141.497192 973.187988,1140.818115 
	C980.656494,1140.393921 988.264465,1138.901123 995.333435,1136.490601 
	C998.751282,1135.325195 1001.071594,1130.941162 1003.976929,1127.629150 
z"/>
<path fill="#D4D4D2" opacity="1.000000" stroke="none" 
	d="
M600.114319,752.298218 
	C599.742859,749.352234 599.047791,746.406433 599.046570,743.460327 
	C598.992493,616.356079 598.994873,489.251801 599.037781,362.147522 
	C599.038635,359.694977 599.605042,357.242584 599.968506,354.370117 
	C606.234314,359.439453 612.439331,364.928833 618.666138,371.073059 
	C618.458679,373.519409 618.029053,375.310852 618.028564,377.102386 
	C617.996826,492.680176 617.994446,608.257935 618.043945,723.835754 
	C618.044800,725.936157 618.703003,728.036377 619.014099,730.447510 
	C618.308350,731.833618 617.643005,732.908813 616.679810,734.137573 
	C610.959473,740.293457 605.536865,746.295837 600.114319,752.298218 
z"/>
<path fill="#D4D4D2" opacity="1.000000" stroke="none" 
	d="
M787.918945,588.809082 
	C791.612427,584.202332 795.239624,579.540527 799.014160,575.001160 
	C805.238342,567.515869 811.543457,560.097595 817.859436,552.689331 
	C818.481506,551.959778 819.416199,551.496765 820.531494,550.788574 
	C820.904785,559.163025 820.992432,567.658875 820.993713,576.154724 
	C821.003784,643.802063 820.997498,711.449341 820.992676,779.569885 
	C809.876343,770.121277 798.763672,760.199463 787.367920,750.112854 
	C787.031799,749.541992 786.978821,749.135986 787.206543,748.180969 
	C787.990662,745.254395 788.928650,742.877686 788.933228,740.499084 
	C789.020203,694.883301 789.030457,649.267151 788.950195,603.651306 
	C788.941467,598.703308 788.278442,593.756470 787.918945,588.809082 
z"/>
<path fill="#EDEDED" opacity="1.000000" stroke="none" 
	d="
M1174.976807,1151.000000 
	C1158.649414,1151.000000 1142.814819,1150.787598 1126.990356,1151.095093 
	C1119.740234,1151.235840 1112.362061,1151.719238 1105.304688,1153.254639 
	C1094.307495,1155.647217 1087.157227,1162.908691 1087.957153,1175.225464 
	C1088.226562,1179.373779 1088.250854,1183.573975 1087.929199,1187.714844 
	C1087.610107,1191.822144 1088.946289,1193.116699 1093.177246,1193.092407 
	C1123.337402,1192.919189 1153.499756,1193.105957 1183.659424,1192.892456 
	C1188.516846,1192.858032 1190.827393,1193.786011 1190.079102,1199.127319 
	C1189.644165,1202.232544 1189.788818,1205.466187 1190.054688,1208.609863 
	C1190.362427,1212.247681 1188.790894,1213.066162 1185.428833,1213.058838 
	C1143.770020,1212.968628 1102.110718,1212.962402 1060.451904,1213.066895 
	C1056.924805,1213.075684 1055.887329,1211.952881 1055.932861,1208.494263 
	C1056.102051,1195.665527 1055.895264,1182.832031 1056.029175,1170.002441 
	C1056.168945,1156.606445 1067.961182,1142.286987 1082.523804,1136.940308 
	C1093.895142,1132.765381 1105.682617,1131.224976 1117.628784,1131.073486 
	C1138.454834,1130.809326 1159.288940,1131.158569 1180.114746,1130.883789 
	C1185.052612,1130.818726 1186.615234,1132.360474 1186.064331,1137.079834 
	C1185.718872,1140.039062 1185.747314,1143.098022 1186.061401,1146.064331 
	C1186.492188,1150.132324 1184.847168,1151.504761 1180.968262,1151.037109 
	C1179.161499,1150.819336 1177.306641,1151.000000 1174.976807,1151.000000 
z"/>
<path fill="#EDEDED" opacity="1.000000" stroke="none" 
	d="
M335.635742,1212.341309 
	C335.364746,1196.713135 334.185333,1181.279785 335.817230,1166.149780 
	C337.384094,1151.623047 347.781128,1142.553711 361.028625,1137.148315 
	C372.078918,1132.639404 383.821655,1131.271606 395.592590,1131.092163 
	C416.920013,1130.766724 438.257507,1131.136230 459.587097,1130.890503 
	C464.117371,1130.838257 465.507660,1132.220825 465.066620,1136.552734 
	C464.730713,1139.851807 464.798615,1143.227783 465.054199,1146.541260 
	C465.327423,1150.083496 463.955719,1151.090454 460.496399,1151.066162 
	C440.998199,1150.928711 421.487244,1150.607300 402.004395,1151.170898 
	C392.710266,1151.439819 383.038757,1151.450562 374.816437,1157.452271 
	C369.863861,1161.067383 367.290192,1165.773315 367.046570,1171.721313 
	C366.828522,1177.045532 367.243652,1182.400391 366.921570,1187.713989 
	C366.672699,1191.819092 367.944031,1193.116821 372.177002,1193.092529 
	C402.341339,1192.919067 432.507935,1193.108398 462.671661,1192.890381 
	C467.555664,1192.855103 469.816193,1193.825806 469.078522,1199.140869 
	C468.647339,1202.247559 468.845642,1205.472656 469.042847,1208.626831 
	C469.237366,1211.738281 468.354889,1213.070435 464.912598,1213.062256 
	C422.581421,1212.961670 380.249878,1212.993530 337.918457,1212.975342 
	C337.264465,1212.975098 336.610535,1212.775513 335.635742,1212.341309 
z"/>
<path fill="#D7D9D5" opacity="1.000000" stroke="none" 
	d="
M619.054504,730.136658 
	C618.703003,728.036377 618.044800,725.936157 618.043945,723.835754 
	C617.994446,608.257935 617.996826,492.680176 618.028564,377.102386 
	C618.029053,375.310852 618.458679,373.519409 618.860962,371.340790 
	C624.593872,376.093750 630.153870,381.233826 635.863403,386.669403 
	C635.675415,491.629822 635.329712,596.294800 635.045044,700.959839 
	C635.037476,703.744812 635.691833,706.531677 636.011963,710.090942 
	C630.342407,717.288452 624.698486,723.712524 619.054504,730.136658 
z"/>
<path fill="#D7D9D5" opacity="1.000000" stroke="none" 
	d="
M671.293213,669.829285 
	C670.997742,586.623596 671.000610,503.267914 671.006470,419.440155 
	C672.584900,420.060455 674.292358,421.004639 675.713013,422.270691 
	C682.073364,427.938904 688.351990,433.698761 694.547852,439.988892 
	C694.301514,441.026611 694.050232,441.500854 694.050049,441.975250 
	C694.021912,507.164154 694.002319,572.353088 694.080322,637.541870 
	C694.081665,638.691406 695.264099,639.839478 695.895447,640.988159 
	C687.794128,650.551880 679.692871,660.115601 671.293213,669.829285 
z"/>
<path fill="#D4D4D2" opacity="1.000000" stroke="none" 
	d="
M696.091248,640.713501 
	C695.264099,639.839478 694.081665,638.691406 694.080322,637.541870 
	C694.002319,572.353088 694.021912,507.164154 694.050049,441.975250 
	C694.050232,441.500854 694.301514,441.026611 694.741516,440.259033 
	C704.157898,448.221802 713.268311,456.477814 722.668091,464.896790 
	C723.463623,465.950867 723.969971,466.842010 724.738403,468.339111 
	C724.666199,471.896271 724.045898,474.846985 724.041016,477.798737 
	C723.976135,516.909119 723.946289,556.019836 724.090332,595.129822 
	C724.102600,598.452698 725.420532,601.770630 726.131958,605.090881 
	C719.256775,613.385620 712.413147,621.706726 705.491882,629.962830 
	C702.506287,633.524170 699.360168,636.950989 696.091248,640.713501 
z"/>
<path fill="#B7BAB4" opacity="1.000000" stroke="none" 
	d="
M638.993835,707.997498 
	C647.461609,698.094177 655.929382,688.190918 664.697388,678.135254 
	C664.189148,684.186951 665.834167,689.096985 671.224304,693.014465 
	C675.732788,696.291138 679.515015,700.566895 683.336182,704.814819 
	C682.700684,706.749451 682.046021,708.268433 682.040955,709.789551 
	C681.978088,728.820312 682.009277,747.851318 682.016357,766.882324 
	C670.682495,769.417358 659.346985,771.944824 648.016418,774.494507 
	C645.946045,774.960449 643.896118,775.517273 641.422607,775.582397 
	C641.004822,754.371155 641.045776,733.609314 640.911072,712.848633 
	C640.900574,711.227478 639.661743,709.614380 638.993835,707.997498 
z"/>
<path fill="#B7BAB4" opacity="1.000000" stroke="none" 
	d="
M837.201416,529.831665 
	C837.942383,523.451355 836.348267,518.071045 830.368286,513.869019 
	C830.561401,511.593658 830.969177,509.972656 830.971619,508.351044 
	C831.006470,485.284271 830.986511,462.217407 830.979736,439.150574 
	C842.379517,436.087891 853.779236,433.025177 865.582336,430.405518 
	C865.989746,450.271759 865.946960,469.695282 866.083191,489.117554 
	C866.094604,490.744507 867.310303,492.363007 867.966492,493.985413 
	C857.819336,505.895020 847.672119,517.804626 837.201416,529.831665 
z"/>
<path fill="#EDEDED" opacity="1.000000" stroke="none" 
	d="
M1180.952026,1105.000000 
	C1140.833374,1105.000000 1101.208374,1104.938721 1061.584106,1105.089355 
	C1057.350220,1105.105469 1055.428223,1104.244629 1055.929565,1099.628540 
	C1056.427490,1095.041626 1054.628052,1088.748901 1057.020142,1086.240234 
	C1059.333374,1083.814331 1065.703613,1085.041260 1070.292358,1085.034058 
	C1108.252319,1084.973999 1146.212524,1085.066162 1184.171875,1084.910645 
	C1188.576294,1084.892578 1190.697266,1085.807129 1190.066162,1090.627930 
	C1189.701782,1093.410522 1189.712769,1096.316040 1190.063232,1099.102295 
	C1190.684204,1104.040283 1188.646729,1105.774658 1183.940308,1105.018433 
	C1183.128662,1104.888062 1182.278320,1105.000000 1180.952026,1105.000000 
z"/>
<path fill="#EDEDED" opacity="1.000000" stroke="none" 
	d="
M432.000000,1105.000000 
	C401.199860,1105.000000 370.899323,1104.922729 340.600098,1105.088745 
	C336.390656,1105.111816 334.424469,1104.284180 334.928589,1099.644653 
	C335.427155,1095.056763 333.583496,1088.433838 335.975922,1086.298462 
	C338.750916,1083.821533 345.020844,1085.042480 349.774384,1085.034546 
	C387.066742,1084.972168 424.359253,1084.986572 461.651733,1085.010376 
	C469.939545,1085.015625 468.920471,1084.119141 468.995911,1092.594482 
	C469.021118,1095.424438 468.838837,1098.266357 469.041260,1101.082031 
	C469.266144,1104.210449 467.931183,1105.083496 464.963928,1105.048950 
	C454.143890,1104.922607 443.321503,1104.999634 432.000000,1105.000000 
z"/>
<path fill="#A39FA3" opacity="1.000000" stroke="none" 
	d="
M600.052612,752.618103 
	C605.536865,746.295837 610.959473,740.293457 617.074463,734.197021 
	C618.510437,735.908630 619.878540,737.707275 619.898926,739.521057 
	C620.065430,754.291565 619.979980,769.064941 619.971191,783.837402 
	C609.774048,788.859741 599.487427,793.709656 589.399780,798.943115 
	C572.396606,807.764343 556.677063,818.579712 541.901306,830.731934 
	C533.997375,837.232483 526.406311,844.113403 518.359985,850.944031 
	C520.927795,846.990540 523.594238,842.740356 526.738037,838.878784 
	C532.599487,831.678894 538.738525,824.704895 544.903442,817.328979 
	C550.381165,811.123535 555.811646,805.307678 561.027710,799.305481 
	C566.359863,793.169800 571.481689,786.851318 576.803467,780.298462 
	C584.604553,770.968750 592.297729,761.953369 600.052612,752.618103 
z"/>
<path fill="#A39FA3" opacity="1.000000" stroke="none" 
	d="
M903.112732,453.579651 
	C898.543762,458.546570 894.106628,463.211639 889.216064,467.660736 
	C888.507568,465.511627 888.043457,463.579712 888.031860,461.645111 
	C887.962463,450.104065 888.042419,438.562012 887.948120,427.021301 
	C887.934265,425.327271 887.258972,423.638641 886.889771,421.947479 
	C894.258362,418.294525 901.718201,414.813293 908.977661,410.954987 
	C927.470093,401.126556 945.057373,389.896545 961.075195,376.336456 
	C967.866211,370.587433 974.551147,364.713135 981.612305,358.754272 
	C978.559814,363.312439 975.273376,368.083710 971.768799,372.689026 
	C969.000183,376.327148 965.963501,379.761261 962.988403,383.625671 
	C957.069275,390.461914 951.131104,396.891510 945.372864,403.478424 
	C941.469177,407.944000 937.818359,412.630554 934.007812,417.551270 
	C926.000916,426.865448 918.012817,435.822266 910.097290,444.842712 
	C907.709595,447.563660 905.523193,450.461182 903.112732,453.579651 
z"/>
<path fill="#A39FA3" opacity="1.000000" stroke="none" 
	d="
M809.871948,495.101685 
	C799.446411,485.722412 789.030884,476.331909 778.581604,466.979065 
	C777.372925,465.897125 775.976990,465.024231 774.324585,463.979187 
	C770.820679,453.431427 773.581177,446.759705 782.183594,444.435059 
	C783.898132,443.971649 785.779907,444.134644 787.582947,443.989685 
	C795.433655,443.358429 803.283875,442.720062 811.560059,442.584106 
	C811.988831,457.458954 812.109253,471.835724 811.898376,486.207642 
	C811.854736,489.181580 810.579529,492.137482 809.871948,495.101685 
z"/>
<path fill="#AFAFAD" opacity="1.000000" stroke="none" 
	d="
M620.344971,783.883118 
	C619.979980,769.064941 620.065430,754.291565 619.898926,739.521057 
	C619.878540,737.707275 618.510437,735.908630 617.372314,734.043457 
	C617.643005,732.908813 618.308350,731.833618 619.014099,730.447510 
	C624.698486,723.712524 630.342407,717.288452 636.039246,710.538086 
	C636.873718,709.556213 637.655334,708.900513 638.715393,708.121216 
	C639.661743,709.614380 640.900574,711.227478 640.911072,712.848633 
	C641.045776,733.609314 641.004822,754.371155 641.019043,775.609009 
	C634.259338,778.699829 627.489075,781.314331 620.344971,783.883118 
z"/>
<path fill="#AFAFAD" opacity="1.000000" stroke="none" 
	d="
M886.521240,421.984680 
	C887.258972,423.638641 887.934265,425.327271 887.948120,427.021301 
	C888.042419,438.562012 887.962463,450.104065 888.031860,461.645111 
	C888.043457,463.579712 888.507568,465.511627 888.939819,467.859131 
	C884.669495,473.766113 880.224731,479.260925 875.772705,484.749908 
	C874.538391,486.271759 873.282715,487.776245 871.992981,489.632385 
	C870.796936,491.194641 869.644775,492.413239 868.229553,493.808655 
	C867.310303,492.363007 866.094604,490.744507 866.083191,489.117554 
	C865.946960,469.695282 865.989746,450.271759 865.973389,430.370239 
	C872.691711,427.268585 879.422241,424.645233 886.521240,421.984680 
z"/>
<path fill="#AFAFAD" opacity="1.000000" stroke="none" 
	d="
M810.034058,495.392731 
	C810.579529,492.137482 811.854736,489.181580 811.898376,486.207642 
	C812.109253,471.835724 811.988831,457.458954 811.976807,442.629944 
	C818.036865,441.156189 824.105957,440.136414 830.577393,439.133606 
	C830.986511,462.217407 831.006470,485.284271 830.971619,508.351044 
	C830.969177,509.972656 830.561401,511.593658 830.176025,513.596313 
	C823.405334,507.879700 816.800781,501.781738 810.034058,495.392731 
z"/>
<path fill="#AFAFAD" opacity="1.000000" stroke="none" 
	d="
M682.424194,766.893738 
	C682.009277,747.851318 681.978088,728.820312 682.040955,709.789551 
	C682.046021,708.268433 682.700684,706.749451 683.430054,705.129761 
	C690.827515,711.437927 697.848450,717.845703 704.716064,724.783203 
	C704.040161,727.348633 703.092957,729.378906 703.066223,731.421143 
	C702.924927,742.233276 703.015076,753.048340 703.025024,763.862427 
	C697.883057,764.577698 692.738586,765.275208 687.600708,766.018738 
	C686.001892,766.250122 684.421021,766.606201 682.424194,766.893738 
z"/>
<path fill="#A39FA3" opacity="1.000000" stroke="none" 
	d="
M703.487671,763.910156 
	C703.015076,753.048340 702.924927,742.233276 703.066223,731.421143 
	C703.092957,729.378906 704.040161,727.348633 704.895508,725.066162 
	C711.652466,730.551819 718.128662,736.227600 724.465759,742.054688 
	C726.148499,743.601807 727.404236,745.613525 729.009888,747.723267 
	C731.581665,756.083313 724.867310,763.634644 714.876831,763.982666 
	C711.239319,764.109314 707.592712,763.973816 703.487671,763.910156 
z"/>
<path fill="#A39FA3" opacity="1.000000" stroke="none" 
	d="
M516.001343,851.358643 
	C516.462524,851.003357 516.920166,850.989807 517.720337,851.009644 
	C517.579041,851.656372 517.095093,852.269714 516.327087,852.975830 
	C516.027893,852.612488 516.012817,852.156433 516.001343,851.358643 
z"/>
<path fill="#A39FA3" opacity="1.000000" stroke="none" 
	d="
M983.704346,357.022583 
	C983.730469,357.240875 983.473450,357.545715 982.907837,357.906708 
	C982.873230,357.678314 983.147217,357.393738 983.704346,357.022583 
z"/>
<path fill="#A39FA3" opacity="1.000000" stroke="none" 
	d="
M985.735840,354.815582 
	C985.807434,355.001648 985.647156,355.368561 985.210083,355.862732 
	C985.123596,355.658783 985.313721,355.327606 985.735840,354.815582 
z"/>
<path fill="#A39FA3" opacity="1.000000" stroke="none" 
	d="
M515.269653,854.162354 
	C515.200500,853.977783 515.365173,853.621338 515.800720,853.138672 
	C515.882263,853.338562 515.692871,853.664612 515.269653,854.162354 
z"/>
<path fill="#BDB4BE" opacity="1.000000" stroke="none" 
	d="
M991.740479,347.970581 
	C991.809631,348.138824 991.655334,348.433044 991.281616,348.851471 
	C991.213806,348.682617 991.365417,348.389587 991.740479,347.970581 
z"/>
<path fill="#A39FA3" opacity="1.000000" stroke="none" 
	d="
M984.724548,356.006866 
	C984.801453,356.224884 984.620544,356.520172 984.186157,356.898163 
	C984.110718,356.681976 984.288696,356.383087 984.724548,356.006866 
z"/>
<path fill="#CCCACC" opacity="1.000000" stroke="none" 
	d="
M787.632568,588.992126 
	C788.278442,593.756470 788.941467,598.703308 788.950195,603.651306 
	C789.030457,649.267151 789.020203,694.883301 788.933228,740.499084 
	C788.928650,742.877686 787.990662,745.254395 787.161377,747.876648 
	C782.466614,744.446899 778.006470,740.874634 773.751892,737.072266 
	C768.485718,732.365906 763.390015,727.468628 758.363525,722.109985 
	C759.004028,719.334229 759.927063,717.103943 759.934937,714.870361 
	C760.033630,687.006226 760.053650,659.141296 759.905945,631.277588 
	C759.892883,628.815186 758.562805,626.359802 757.844360,623.901123 
	C761.899963,618.922058 765.866028,613.866638 770.032776,608.982483 
	C775.723877,602.311768 781.567810,595.771423 787.632568,588.992126 
z"/>
<path fill="#CCCACC" opacity="1.000000" stroke="none" 
	d="
M726.418518,604.911987 
	C725.420532,601.770630 724.102600,598.452698 724.090332,595.129822 
	C723.946289,556.019836 723.976135,516.909119 724.041016,477.798737 
	C724.045898,474.846985 724.666199,471.896271 725.002686,468.520752 
	C734.265259,476.512970 743.525635,484.929474 752.591980,493.837036 
	C751.931946,496.336731 751.069458,498.343689 751.060791,500.354340 
	C750.964172,522.631287 750.966797,544.909058 751.044495,567.186157 
	C751.053589,569.798950 751.672852,572.409607 752.009277,575.021240 
	C743.574524,584.925232 735.139771,594.829163 726.418518,604.911987 
z"/>
<path fill="#C7C3C7" opacity="1.000000" stroke="none" 
	d="
M757.564087,624.073059 
	C758.562805,626.359802 759.892883,628.815186 759.905945,631.277588 
	C760.053650,659.141296 760.033630,687.006226 759.934937,714.870361 
	C759.927063,717.103943 759.004028,719.334229 758.200134,721.816406 
	C744.898682,710.494873 731.831482,699.002319 718.940674,687.315186 
	C713.180725,682.093079 712.599243,676.162720 717.657837,670.169312 
	C730.698242,654.719238 744.054016,639.535278 757.564087,624.073059 
z"/>
<path fill="#C7C3C7" opacity="1.000000" stroke="none" 
	d="
M752.305298,574.860718 
	C751.672852,572.409607 751.053589,569.798950 751.044495,567.186157 
	C750.966797,544.909058 750.964172,522.631287 751.060791,500.354340 
	C751.069458,498.343689 751.931946,496.336731 752.758118,494.129456 
	C762.768616,502.490906 772.534485,510.925201 782.031860,519.651794 
	C789.312927,526.341980 789.598450,531.324829 783.299255,538.950806 
	C776.867249,546.737488 770.145508,554.284851 763.555542,561.941223 
	C759.898865,566.189636 756.252380,570.446899 752.305298,574.860718 
z"/>
</svg>